# xmcd CD database file
#
# Track frame offsets:
#	150
#	18237
#	40812
#	53575
#	73450
#	88225
#	105150
#	120087
#	133537
#	148562
#	168012
#	181362
#
# Disc length: 2673 seconds
#
# Revision: 0
# Processed by: cddbd v1.4PL0 Copyright (c) Steve Scherf et al.
# Submitted via: CDex 1.51
#
DISCID=940a6f0c
DTITLE=Various Artist - Guitar (Jazz Special Sellection-30)
DYEAR=2001
DGENRE=Jazz
TTITLE0=There Is No Greater Love
TTITLE1=Chuckles
TTITLE2=Summertime
TTITLE3=Indiana
TTITLE4=Nuages
TTITLE5=Oh You Crazy Moon
TTITLE6=South Of The Border
TTITLE7=Green Peppers
TTITLE8=Walk Don't Run
TTITLE9=Moon And Sund
TTITLE10=Downstairs
TTITLE11=Greensleaves
EXTD=YEAR: 2001
EXTT0=
EXTT1=
EXTT2=
EXTT3=
EXTT4=
EXTT5=
EXTT6=
EXTT7=
EXTT8=
EXTT9=
EXTT10=
EXTT11=
PLAYORDER=
